<?xml version="1.0" encoding="UTF-8" standalone="no"?><!DOCTYPE svg PUBLIC "-//W3C//DTD SVG 1.1//EN" "http://www.w3.org/Graphics/SVG/1.1/DTD/svg11.dtd"><svg width="100%" height="100%" viewBox="0 0 160 140" version="1.1" xmlns="http://www.w3.org/2000/svg" xmlns:xlink="http://www.w3.org/1999/xlink" xml:space="preserve" xmlns:serif="http://www.serif.com/" style="fill-rule:evenodd;clip-rule:evenodd;stroke-linejoin:round;stroke-miterlimit:2;"><path d="M160,52.64c0,-0.08 0,-0.19 -0.02,-0.3c-0.2,-1.61 -0.83,-3.04 -1.87,-4.28c-0.6,-0.72 -1.26,-1.41 -1.92,-2.08c-1.48,-1.51 -2.99,-2.98 -4.46,-4.49c-0.89,-0.91 -1.82,-1.81 -2.57,-2.83c-1.97,-2.67 -4.05,-5.25 -5.69,-8.14c-1.07,-1.89 -2.87,-2.45 -4.95,-2.28c-1.02,0.09 -1.92,0.54 -2.75,1.11c-2.87,1.97 -5.73,3.96 -8.41,6.19c-1.45,1.21 -2.86,2.45 -3.85,4.11c-0.62,1.03 -1.02,2.07 -0.88,3.3c0.12,1.06 0.26,2.12 0.69,3.11c0.56,1.28 1.42,2.35 2.42,3.3c2.2,2.1 4.39,4.2 6.64,6.25c3.59,3.27 7.31,6.4 11.33,9.13c1.29,0.88 2.64,1.69 3.99,2.48c0.67,0.39 1.42,0.54 2.21,0.4c1.32,-0.24 2.47,-0.81 3.43,-1.75c1.24,-1.21 2.18,-2.65 3.1,-4.1c0.45,-0.7 0.9,-1.4 1.35,-2.1c0.32,-0.49 0.67,-0.96 0.94,-1.47c0.92,-1.74 1.15,-3.62 1.27,-5.56m-64.3,16.47c0.95,-0.08 1.78,-0.1 2.6,-0.24c3.39,-0.57 6.69,-1.47 9.9,-2.69c2.95,-1.12 5.75,-2.56 8.54,-4.03c1.51,-0.8 3.01,-1.62 4.36,-2.67c1.44,-1.11 2.72,-2.37 3.6,-3.99c0.41,-0.75 0.72,-1.53 0.75,-2.4c0.05,-1.13 -0.32,-2.13 -0.91,-3.06c-0.45,-0.71 -0.95,-1.4 -1.47,-2.07c-0.65,-0.83 -1.16,-1.72 -1.47,-2.73c-0.16,-0.53 -0.38,-1.04 -0.57,-1.56c-1.45,-3.88 -3.3,-7.55 -5.72,-10.91c-3.35,-4.67 -6.85,-9.22 -10.61,-13.57c-1.29,-1.49 -2.62,-2.94 -4.12,-4.23c-0.82,-0.71 -1.77,-1.08 -2.85,-1.11c-2.29,-0.07 -4.4,0.54 -6.31,1.78c-2.36,1.53 -4.1,3.63 -5.51,6.03c-0.7,1.2 -1.07,2.5 -1,3.89c0.04,0.74 0.25,1.47 0.33,2.21c0.13,1.21 0.22,2.43 0.33,3.64c0.1,1.15 0.18,2.29 0.28,3.44c0.13,1.52 0.26,3.04 0.39,4.55c0.09,1.12 0.18,2.24 0.28,3.36c0.13,1.48 0.26,2.95 0.39,4.43c0.12,1.48 0.23,2.95 0.36,4.43c0.15,1.81 0.31,3.62 0.47,5.42c0.14,1.56 0.24,3.12 0.43,4.67c0.18,1.47 0.61,2.87 1.32,4.18c0.87,1.59 2.13,2.65 3.96,2.94c0.79,0.14 1.58,0.21 2.25,0.29m-42.48,-2.87l-0,0.03c0.37,-0.04 0.75,-0.05 1.11,-0.12c1.18,-0.25 2.67,-1.41 2.37,-3.17c-0.12,-0.67 -0.24,-1.34 -0.44,-1.98c-0.79,-2.57 -2,-4.97 -3.33,-7.29c-4.75,-8.29 -10.08,-16.17 -16.61,-23.18c-2.57,-2.76 -5.25,-5.43 -8.23,-7.76c-0.8,-0.63 -1.69,-1.17 -2.55,-1.71c-0.6,-0.37 -1.22,-0.29 -1.81,0.09c-0.16,0.1 -0.32,0.22 -0.47,0.35c-0.78,0.66 -1.37,1.49 -1.92,2.34c-1.36,2.1 -2.43,4.36 -3.46,6.63c-1.25,2.74 -2.43,5.51 -3.74,8.21c-2.01,4.16 -4.1,8.27 -6.16,12.41c-2.06,4.15 -4.14,8.29 -5.78,12.62c-0.74,1.94 -1.36,3.93 -2,5.9c-0.34,1.04 -0.28,2.05 0.39,2.97c0.27,0.37 0.53,0.75 0.82,1.1c0.56,0.68 1.25,1.16 2.14,1.23c0.63,0.05 1.27,0.06 1.91,0.02c1.12,-0.07 2.24,-0.18 3.35,-0.3c1.14,-0.11 2.29,-0.21 3.43,-0.37c1.74,-0.26 3.47,-0.56 5.21,-0.87c2.14,-0.39 4.29,-0.76 6.41,-1.22c2.61,-0.56 5.11,-1.48 7.62,-2.37c3.15,-1.11 6.36,-1.94 9.67,-2.41c1.88,-0.27 3.74,-0.63 5.61,-0.97c1.13,-0.21 2.27,-0.39 3.43,-0.34c1.01,0.04 2.02,0.11 3.03,0.16m20.47,7.01c0.5,-0.04 1.48,-0.11 2.46,-0.17c1.56,-0.1 2.99,-0.6 4.25,-1.52c1.42,-1.03 2.43,-2.34 2.8,-4.09c0.38,-1.78 0.56,-3.59 0.59,-5.4c0.03,-1.61 0.02,-3.21 -0,-4.82c-0.01,-0.87 -0.05,-1.75 -0.1,-2.62c-0.09,-1.55 -0.2,-3.1 -0.31,-4.64c-0.06,-0.8 -0.13,-1.6 -0.18,-2.4c-0.11,-1.63 -0.23,-3.26 -0.3,-4.89c-0.03,-0.66 0.02,-1.33 0.08,-1.99c0.11,-1.42 0.22,-2.84 0.37,-4.26c0.18,-1.68 0.22,-3.36 -0.19,-5c-0.68,-2.76 -1.37,-5.51 -2.13,-8.25c-0.97,-3.49 -1.75,-7.01 -2.15,-10.62c-0.15,-1.35 -0.43,-2.68 -0.88,-3.97c-0.52,-1.52 -1.48,-2.5 -3.11,-2.85c-1.82,-0.39 -3.65,-0.71 -5.5,-0.89c-2.18,-0.2 -4.36,-0.41 -6.55,-0.55c-1.51,-0.1 -3.02,-0.1 -4.53,-0.11c-1.48,-0.01 -2.97,-0.05 -4.45,0.17c-1.24,0.18 -2.29,0.73 -3.1,1.7c-0.75,0.9 -1.24,1.95 -1.56,3.05c-0.6,2.06 -1.15,4.14 -1.69,6.21c-0.39,1.49 -0.65,3.01 -0.56,4.56c0.06,1.04 0.15,2.07 0.34,3.09c0.48,2.66 1.29,5.21 2.6,7.6c1.31,2.39 2.44,4.85 3.24,7.47c1.35,4.44 2.3,8.96 3.15,13.51c0.48,2.59 0.88,5.19 1.39,7.77c0.53,2.68 1.14,5.34 1.72,8c0.23,1.1 0.77,1.99 1.74,2.58c0.82,0.49 1.63,1.01 2.5,1.4c3.03,1.38 6.26,1.9 10.06,1.93m-46.31,28.47c-0.88,3.27 -3.65,5.1 -7.3,4.12l-7.31,-1.96l3.06,-11.39l7.31,1.96c3.65,0.97 5.13,3.94 4.24,7.27m-17.15,-18.91l-10.23,38.16l7.64,2.04l3.08,-11.5l7.31,1.96c7.8,2.09 14.93,-2.02 16.99,-9.71c2.06,-7.69 -2.04,-14.86 -9.84,-16.95l-14.95,-4Zm33.96,6.3l2.59,39.43l25.48,-1.67l-0.52,-7.89l-17.59,1.15l-0.52,-7.88l17.59,-1.15l-0.52,-7.89l-17.59,1.15l-0.52,-7.89l17.59,-1.15l-0.52,-7.88l-25.47,1.67Zm73.19,15.1l-0,-7.9l-36.49,-0l-0,7.9l14.29,-0l-0,31.61l7.91,-0l-0,-31.61l14.29,-0Zm5.22,-22.56l-0,7.9l20.45,-0l-20.45,25.91l-0,5.7l32.25,-0l-0,-7.9l-20.45,-0l20.45,-25.91l-0,-5.7l-32.25,-0Z" style="fill:#ef3340;fill-rule:nonzero;"/></svg>